<svg width="40" height="40" viewBox="0 0 40 40" fill="none" xmlns="http://www.w3.org/2000/svg">
<circle cx="20" cy="20" r="20" fill="#74A84A"/>
<path d="M12 27.3572V12.4205C11.9999 12.1707 12.0673 11.9252 12.1953 11.7089C12.3233 11.4926 12.5074 11.3132 12.729 11.1887C12.9507 11.0643 13.202 10.9992 13.4575 11C13.7131 11.0009 13.964 11.0676 14.1847 11.1936L27.28 18.6633C27.4991 18.7884 27.6809 18.9675 27.8072 19.1826C27.9335 19.3978 28 19.6415 28 19.8896C28 20.1377 27.9335 20.3814 27.8072 20.5966C27.6809 20.8117 27.4991 20.9908 27.28 21.1159L14.1847 28.5842C13.964 28.7102 13.7131 28.7769 13.4575 28.7778C13.202 28.7786 12.9507 28.7135 12.729 28.5891C12.5074 28.4646 12.3233 28.2852 12.1953 28.0689C12.0673 27.8526 11.9999 27.6071 12 27.3572Z" fill="white"/>
</svg>
