<svg width="40" height="40" viewBox="0 0 40 40" fill="none" xmlns="http://www.w3.org/2000/svg">
<circle cx="20" cy="20" r="20" fill="#74A84A"/>
<path d="M12 17H15.578V28H12V17ZM25.324 17.129C25.286 17.117 25.25 17.104 25.21 17.093C25.162 17.0821 25.1136 17.0728 25.065 17.065C24.8537 17.0218 24.6386 17 24.423 17C22.337 17 21.014 18.517 20.578 19.103V17H17V28H20.578V22C20.578 22 23.282 18.234 24.423 21V28H28V20.577C27.9985 19.7871 27.735 19.0201 27.2507 18.3961C26.7664 17.7721 26.0888 17.3265 25.324 17.129Z" fill="white"/>
<path d="M13.75 15.5C14.7165 15.5 15.5 14.7165 15.5 13.75C15.5 12.7835 14.7165 12 13.75 12C12.7835 12 12 12.7835 12 13.75C12 14.7165 12.7835 15.5 13.75 15.5Z" fill="white"/>
</svg>
