<?xml version="1.0" encoding="UTF-8"?>
<svg width="18px" height="18px" viewBox="0 0 18 18" version="1.1" xmlns="http://www.w3.org/2000/svg" xmlns:xlink="http://www.w3.org/1999/xlink">
    <!-- Generator: Sketch 51.3 (57544) - http://www.bohemiancoding.com/sketch -->
    <title>Shape</title>
    <desc>Created with Sketch.</desc>
    <defs></defs>
    <g id="Page-1" stroke="none" stroke-width="1" fill="none" fill-rule="evenodd">
        <g id="List----Modal" transform="translate(-1031.000000, -212.000000)" fill="#FFFFFF" fill-rule="nonzero">
            <g id="iconfinder_add_134224" transform="translate(1024.000000, 205.000000)">
                <path d="M25.4285714,14.4285714 L17.5714286,14.4285714 L17.5714286,6.57142857 C17.5714286,5.704 16.8674286,5 16,5 C15.1325714,5 14.4285714,5.704 14.4285714,6.57142857 L14.4285714,14.4285714 L6.57142857,14.4285714 C5.704,14.4285714 5,15.1325714 5,16 C5,16.8674286 5.704,17.5714286 6.57142857,17.5714286 L14.4285714,17.5714286 L14.4285714,25.4285714 C14.4285714,26.296 15.1325714,27 16,27 C16.8674286,27 17.5714286,26.296 17.5714286,25.4285714 L17.5714286,17.5714286 L25.4285714,17.5714286 C26.296,17.5714286 27,16.8674286 27,16 C27,15.1325714 26.296,14.4285714 25.4285714,14.4285714 Z" id="Shape" transform="translate(16.000000, 16.000000) rotate(-315.000000) translate(-16.000000, -16.000000) "></path>
            </g>
        </g>
    </g>
</svg>