<?xml version="1.0" encoding="UTF-8"?>
<svg width="18px" height="18px" viewBox="0 0 18 18" version="1.1" xmlns="http://www.w3.org/2000/svg" xmlns:xlink="http://www.w3.org/1999/xlink">
    <title>circle-question-solid</title>
    <g id="Page-1" stroke="none" stroke-width="1" fill="none" fill-rule="evenodd">
        <g id="Light-theme---Diseño-3" transform="translate(-647.000000, -729.000000)" fill="#242E42" fill-rule="nonzero">
            <g id="circle-question-solid" transform="translate(647.000000, 729.000000)">
                <path d="M9,18 C13.9710937,18 18,13.9710937 18,9 C18,4.02890625 13.9710937,0 9,0 C4.02890625,0 0,4.02890625 0,9 C0,13.9710937 4.02890625,18 9,18 Z M5.96953125,5.81132813 C6.24726562,5.02734375 6.99257812,4.5 7.82578125,4.5 L9.87539062,4.5 C11.1023437,4.5 12.09375,5.49492188 12.09375,6.71835938 C12.09375,7.51289062 11.6683594,8.24765625 10.9792969,8.64492187 L9.84375,9.2953125 C9.83671875,9.75234375 9.46054687,10.125 9,10.125 C8.53242187,10.125 8.15625,9.74882812 8.15625,9.28125 L8.15625,8.80664062 C8.15625,8.50429688 8.31796875,8.2265625 8.58164062,8.07539062 L10.1390625,7.18242187 C10.3042969,7.0875 10.40625,6.91171875 10.40625,6.721875 C10.40625,6.4265625 10.1671875,6.19101563 9.87539062,6.19101563 L7.82578125,6.19101563 C7.70625,6.19101563 7.60078125,6.26484375 7.56210937,6.37734375 L7.54804687,6.41953125 C7.39335937,6.85898437 6.90820312,7.0875 6.47226562,6.9328125 C6.03632812,6.778125 5.80429687,6.29296875 5.95898437,5.85703125 L5.97304687,5.81484375 L5.96953125,5.81132813 Z M10.125,12.375 C10.125,12.9972656 9.62226562,13.5 9,13.5 C8.37773438,13.5 7.875,12.9972656 7.875,12.375 C7.875,11.7527344 8.37773438,11.25 9,11.25 C9.62226562,11.25 10.125,11.7527344 10.125,12.375 Z" id="Shape"></path>
            </g>
        </g>
    </g>
</svg>