<?xml version="1.0" encoding="UTF-8"?>
<svg width="13px" height="13px" viewBox="0 0 13 13" version="1.1" xmlns="http://www.w3.org/2000/svg" xmlns:xlink="http://www.w3.org/1999/xlink">
    <title>copy-solid</title>
    <g id="Page-1" stroke="none" stroke-width="1" fill="none" fill-rule="evenodd">
        <g id="Light-theme" transform="translate(-129.000000, -434.000000)" fill="#7A8992" fill-rule="nonzero">
            <g id="Group-7" transform="translate(26.000000, 340.000000)">
                <g id="Group-5" transform="translate(15.000000, 90.000000)">
                    <g id="copy-solid" transform="translate(88.000000, 4.000000)">
                        <path d="M5.6875,0 C4.79121094,0 4.0625,0.728710937 4.0625,1.625 L4.0625,7.3125 C4.0625,8.20878906 4.79121094,8.9375 5.6875,8.9375 L11.375,8.9375 C12.2712891,8.9375 13,8.20878906 13,7.3125 L13,1.625 C13,0.728710938 12.2712891,0 11.375,0 L5.6875,0 Z M1.625,4.0625 C0.728710938,4.0625 0,4.79121094 0,5.6875 L0,11.375 C0,12.2712891 0.728710937,13 1.625,13 L7.3125,13 C8.20878906,13 8.9375,12.2712891 8.9375,11.375 L8.9375,9.75 L7.3125,9.75 L7.3125,11.375 L1.625,11.375 L1.625,5.6875 L3.25,5.6875 L3.25,4.0625 L1.625,4.0625 Z" id="Shape"></path>
                    </g>
                </g>
            </g>
        </g>
    </g>
</svg>