<?xml version="1.0" encoding="UTF-8"?>
<svg width="36px" height="36px" viewBox="0 0 36 36" version="1.1" xmlns="http://www.w3.org/2000/svg" xmlns:xlink="http://www.w3.org/1999/xlink">
    <title>Group 10</title>
    <g id="Page-1" stroke="none" stroke-width="1" fill="none" fill-rule="evenodd">
        <g id="Light-theme" transform="translate(-749.000000, -118.000000)">
            <g id="Group-10" transform="translate(749.000000, 118.000000)">
                <circle id="Oval" stroke="#FFFFFF" stroke-width="2" cx="18" cy="18" r="17"></circle>
                <g id="hand-holding-heart-solid" transform="translate(6.857143, 6.857143)" fill="#FFFFFF" fill-rule="nonzero">
                    <path d="M21.9841693,11.9668227 C22.4910201,12.6648745 22.3439947,13.6452843 21.6552967,14.1590191 L16.7570287,17.8179085 C15.8516617,18.4924304 14.7605783,18.8571429 13.6346731,18.8571429 L7.42865278,18.8571429 L1.2381088,18.8571429 C0.553279868,18.8571429 0,18.2963484 0,17.6022183 L0,15.0923692 C0,14.398239 0.553279868,13.8374446 1.2381088,13.8374446 L2.66193391,13.8374446 L4.39915532,12.4256545 C5.27743875,11.7119162 6.36852212,11.3275955 7.49442731,11.3275955 L10.5239248,11.3275955 L11.1429792,11.3275955 L13.6191968,11.3275955 C14.3040257,11.3275955 14.8573056,11.8883899 14.8573056,12.5825201 C14.8573056,13.2766502 14.3040257,13.8374446 13.6191968,13.8374446 L11.1429792,13.8374446 L10.5239248,13.8374446 C10.1834449,13.8374446 9.90487037,14.1198027 9.90487037,14.4649069 C9.90487037,14.8100112 10.1834449,15.0923692 10.5239248,15.0923692 L15.1900473,15.0923692 L19.821348,11.6334834 C20.510046,11.1197486 21.4773185,11.2687709 21.9841693,11.9668227 Z M11.6925048,8.51827578 C14.0106148,8.51827578 15.8898142,6.61139479 15.8898142,4.25913789 C15.8898142,1.90688098 14.0106148,0 11.6925048,0 C9.37439482,0 7.49519539,1.90688098 7.49519539,4.25913789 C7.49519539,6.61139479 9.37439482,8.51827578 11.6925048,8.51827578 Z M7.54880186,13.8678364 L7.54880186,13.8678364 L7.45880186,13.8678364 C7.48880186,13.8678364 7.51880186,13.8678364 7.54880186,13.8678364 Z" id="Shape"></path>
                </g>
            </g>
        </g>
    </g>
</svg>