<?xml version="1.0" encoding="UTF-8"?>
<svg width="20px" height="20px" viewBox="0 0 20 20" version="1.1" xmlns="http://www.w3.org/2000/svg" xmlns:xlink="http://www.w3.org/1999/xlink">
    <title>pencil-solid</title>
    <g id="Page-1" stroke="none" stroke-width="1" fill="none" fill-rule="evenodd">
        <g id="Light-theme---Diseño-2" transform="translate(-527.000000, -492.000000)" fill="#02AFE1" fill-rule="nonzero">
            <g id="pencil-solid" transform="translate(527.000000, 492.000000)">
                <path d="M16.0476486,9.03451482 L16.4896236,8.59266233 L15.1636987,7.26710486 L12.7347919,4.83887128 L11.408867,3.51331381 L10.9668921,3.9551663 L10.0829421,4.83887128 L2.29166651,12.6279877 C1.88489308,13.0346484 1.58763558,13.5390641 1.4233617,14.0904021 L0.0387675395,18.7982818 C-0.0590145339,19.1267385 0.0309449736,19.4825666 0.277355799,19.7249989 C0.523766623,19.9674313 0.875782088,20.0573658 1.20432985,19.9635211 L5.90960323,18.5793106 C6.46109412,18.4150822 6.96564962,18.1179071 7.37242304,17.7112464 L15.1636987,9.92212999 L16.0476486,9.03451482 Z M6.25770741,15.61929 L5.90178066,16.5069051 C5.74532934,16.6281213 5.56932161,16.7180559 5.38158003,16.7767089 L2.32295677,17.6760546 L3.22255185,14.6221892 C3.27730981,14.4305895 3.3711806,14.2546305 3.49243037,14.1021327 L4.3802916,13.7463046 L4.3802916,14.9975683 C4.3802916,15.3416658 4.66190397,15.6232002 5.00609687,15.6232002 L6.25770741,15.6232002 L6.25770741,15.61929 Z M14.1858779,0.733162315 L13.6226532,1.30014117 L12.7387032,2.18384615 L12.292817,2.62569864 L13.6187419,3.9512561 L16.0476486,6.37948969 L17.3735735,7.70504715 L17.8155485,7.26319467 L18.6994984,6.37948969 L19.2666344,5.81251083 C20.2444552,4.83496108 20.2444552,3.25133048 19.2666344,2.27378073 L17.7295003,0.733162315 C16.7516795,-0.244387438 15.1676099,-0.244387438 14.1897892,0.733162315 L14.1858779,0.733162315 Z M12.3319298,7.30229666 L6.69968238,12.9329832 C6.45718284,13.1754156 6.05823198,13.1754156 5.81573243,12.9329832 C5.57323289,12.6905509 5.57323289,12.2917106 5.81573243,12.0492783 L11.4479799,6.41859168 C11.6904794,6.17615934 12.0894303,6.17615934 12.3319298,6.41859168 C12.5744293,6.66102402 12.5744293,7.05986432 12.3319298,7.30229666 L12.3319298,7.30229666 Z" id="Shape"></path>
            </g>
        </g>
    </g>
</svg>