<?xml version="1.0" encoding="UTF-8"?>
<svg width="18px" height="18px" viewBox="0 0 18 18" version="1.1" xmlns="http://www.w3.org/2000/svg" xmlns:xlink="http://www.w3.org/1999/xlink">
    <title>key-solid</title>
    <g id="Page-1" stroke="none" stroke-width="1" fill="none" fill-rule="evenodd">
        <g id="Light-theme---Diseño-3" transform="translate(-1363.000000, -779.000000)" fill="#000000" fill-rule="nonzero">
            <g id="key-solid" transform="translate(1363.000000, 779.000000)">
                <path d="M11.8125,12.375 C15.2296875,12.375 18,9.6046875 18,6.1875 C18,2.7703125 15.2296875,0 11.8125,0 C8.3953125,0 5.625,2.7703125 5.625,6.1875 C5.625,6.84492187 5.72695313,7.48125 5.91679688,8.07539062 L0.24609375,13.7460938 C0.087890625,13.9042969 0,14.11875 0,14.34375 L0,17.15625 C0,17.6238281 0.376171875,18 0.84375,18 L3.65625,18 C4.12382813,18 4.5,17.6238281 4.5,17.15625 L4.5,15.75 L5.90625,15.75 C6.37382813,15.75 6.75,15.3738281 6.75,14.90625 L6.75,13.5 L8.15625,13.5 C8.38125,13.5 8.59570312,13.4121094 8.75390625,13.2539062 L9.92460938,12.0832031 C10.51875,12.2730469 11.1550781,12.375 11.8125,12.375 Z M13.21875,6.1875 C12.4417969,6.1875 11.8125,5.55820312 11.8125,4.78125 C11.8125,4.00429688 12.4417969,3.375 13.21875,3.375 C13.9957031,3.375 14.625,4.00429688 14.625,4.78125 C14.625,5.55820312 13.9957031,6.1875 13.21875,6.1875 Z" id="Shape"></path>
            </g>
        </g>
    </g>
</svg>