<?xml version="1.0" encoding="UTF-8"?>
<svg width="18px" height="18px" viewBox="0 0 18 18" version="1.1" xmlns="http://www.w3.org/2000/svg" xmlns:xlink="http://www.w3.org/1999/xlink">
    <title>percent-solid</title>
    <g id="Page-1" stroke="none" stroke-width="1" fill="none" fill-rule="evenodd">
        <g id="Light-theme---Diseño-3" transform="translate(-786.000000, -922.000000)" fill="#000000" fill-rule="nonzero">
            <g id="percent-solid" transform="translate(786.000000, 922.000000)">
                <path d="M17.559461,2.56239016 C18.1452841,1.97656708 18.1452841,1.02519039 17.559461,0.439367311 C16.973638,-0.14645577 16.0222613,-0.14645577 15.4364382,0.439367311 L0.439367311,15.4364382 C-0.14645577,16.0222613 -0.14645577,16.973638 0.439367311,17.559461 C1.02519039,18.1452841 1.97656708,18.1452841 2.56239016,17.559461 L17.559461,2.56239016 Z M6.00234329,3.00292912 C6.00234329,1.34856473 4.6572935,0.00351493849 3.00292912,0.00351493849 C1.34856473,0.00351493849 0.00351493849,1.34856473 0.00351493849,3.00292912 C0.00351493849,4.6572935 1.34856473,6.00234329 3.00292912,6.00234329 C4.6572935,6.00234329 6.00234329,4.6572935 6.00234329,3.00292912 Z M18,15.0005858 C18,13.3462214 16.6549502,12.0011716 15.0005858,12.0011716 C13.3462214,12.0011716 12.0011716,13.3462214 12.0011716,15.0005858 C12.0011716,16.6549502 13.3462214,18 15.0005858,18 C16.6549502,18 18,16.6549502 18,15.0005858 Z" id="Shape"></path>
            </g>
        </g>
    </g>
</svg>