<?xml version="1.0" encoding="UTF-8"?>
<svg width="13px" height="13px" viewBox="0 0 13 13" version="1.1" xmlns="http://www.w3.org/2000/svg" xmlns:xlink="http://www.w3.org/1999/xlink">
    <title>qrcode-solid</title>
    <g id="Page-1" stroke="none" stroke-width="1" fill="none" fill-rule="evenodd">
        <g id="Light-theme" transform="translate(-210.000000, -1302.000000)" fill="#7A8992" fill-rule="nonzero">
            <g id="Group-17" transform="translate(26.000000, 1201.000000)">
                <g id="qrcode-solid" transform="translate(184.000000, 101.000000)">
                    <path d="M1.39285714,0 C0.623883929,0 0,0.623883929 0,1.39285714 L0,4.17857143 C0,4.94754464 0.623883929,5.57142857 1.39285714,5.57142857 L4.17857143,5.57142857 C4.94754464,5.57142857 5.57142857,4.94754464 5.57142857,4.17857143 L5.57142857,1.39285714 C5.57142857,0.623883929 4.94754464,0 4.17857143,0 L1.39285714,0 Z M3.71428571,1.85714286 L3.71428571,3.71428571 L1.85714286,3.71428571 L1.85714286,1.85714286 L3.71428571,1.85714286 Z M1.39285714,7.42857143 C0.623883929,7.42857143 0,8.05245536 0,8.82142857 L0,11.6071429 C0,12.3761161 0.623883929,13 1.39285714,13 L4.17857143,13 C4.94754464,13 5.57142857,12.3761161 5.57142857,11.6071429 L5.57142857,8.82142857 C5.57142857,8.05245536 4.94754464,7.42857143 4.17857143,7.42857143 L1.39285714,7.42857143 Z M3.71428571,9.28571429 L3.71428571,11.1428571 L1.85714286,11.1428571 L1.85714286,9.28571429 L3.71428571,9.28571429 Z M7.42857143,1.39285714 L7.42857143,4.17857143 C7.42857143,4.94754464 8.05245536,5.57142857 8.82142857,5.57142857 L11.6071429,5.57142857 C12.3761161,5.57142857 13,4.94754464 13,4.17857143 L13,1.39285714 C13,0.623883929 12.3761161,0 11.6071429,0 L8.82142857,0 C8.05245536,0 7.42857143,0.623883929 7.42857143,1.39285714 Z M9.28571429,1.85714286 L11.1428571,1.85714286 L11.1428571,3.71428571 L9.28571429,3.71428571 L9.28571429,1.85714286 Z M10.2142857,12.0714286 L10.2142857,13 L11.1428571,13 L11.1428571,12.0714286 L10.2142857,12.0714286 Z M13,12.0714286 L12.0714286,12.0714286 L12.0714286,13 L13,13 L13,12.0714286 Z M12.0714286,7.42857143 L12.0714286,8.35714286 L10.2142857,8.35714286 L10.2142857,7.42857143 L7.42857143,7.42857143 L7.42857143,10.2142857 L7.42857143,13 L9.28571429,13 L9.28571429,10.2142857 L10.2142857,10.2142857 L10.2142857,11.1428571 L13,11.1428571 L13,9.28571429 L13,8.35714286 L13,7.42857143 L12.0714286,7.42857143 Z" id="Shape"></path>
                </g>
            </g>
        </g>
    </g>
</svg>