<?xml version="1.0" encoding="UTF-8"?>
<svg width="18px" height="18px" viewBox="0 0 18 18" version="1.1" xmlns="http://www.w3.org/2000/svg" xmlns:xlink="http://www.w3.org/1999/xlink">
    <title>sun-solid</title>
    <defs>
        <linearGradient x1="0%" y1="0%" x2="100%" y2="100%" id="linearGradient-1">
            <stop stop-color="#00C7C3" offset="0%"></stop>
            <stop stop-color="#E22C79" offset="100%"></stop>
        </linearGradient>
    </defs>
    <g id="Page-1" stroke="none" stroke-width="1" fill="none" fill-rule="evenodd">
        <g id="Dark-theme" transform="translate(-1203.000000, -28.000000)" fill="url(#linearGradient-1)" fill-rule="nonzero">
            <g id="Group-2" transform="translate(1203.000000, 22.000000)">
                <g id="sun-solid" transform="translate(0.000000, 6.000000)">
                    <path d="M12.708448,0.0434828502 C12.8842039,0.117300299 13.0107481,0.275480547 13.0458992,0.461781728 L13.7454074,4.25459256 L17.5382183,4.95058565 C17.7245195,4.98573682 17.8826997,5.11228102 17.9565171,5.28803685 C18.0303346,5.46379268 18.0092439,5.66415433 17.9002753,5.82233457 L15.7103576,9 L17.9002753,12.1741503 C18.0092439,12.3323306 18.0303346,12.5326922 17.9565171,12.708448 C17.8826997,12.8842039 17.7245195,13.0107481 17.5382183,13.0458992 L13.7454074,13.7454074 L13.0458992,17.5382183 C13.0107481,17.7245195 12.8842039,17.8826997 12.708448,17.9565171 C12.5326922,18.0303346 12.3323306,18.0092439 12.1741503,17.9002753 L9,15.7103576 L5.82584969,17.9002753 C5.66766944,18.0092439 5.4673078,18.0303346 5.29155197,17.9565171 C5.11579613,17.8826997 4.98925194,17.7245195 4.95410077,17.5382183 L4.25459256,13.7454074 L0.461781728,13.0458992 C0.275480547,13.0107481 0.117300299,12.8842039 0.0434828502,12.708448 C-0.0303345989,12.5326922 -0.00924389913,12.3323306 0.0997247161,12.1741503 L2.28964237,9 L0.0997247161,5.82584969 C-0.00924389913,5.66766944 -0.0303345989,5.4673078 0.0434828502,5.29155197 C0.117300299,5.11579613 0.275480547,4.98925194 0.461781728,4.95410077 L4.25459256,4.25459256 L4.95410077,0.461781728 C4.98925194,0.275480547 5.11579613,0.117300299 5.29155197,0.0434828502 C5.4673078,-0.0303345989 5.66766944,-0.00924389913 5.82584969,0.0997247161 L9,2.28964237 L12.1741503,0.0997247161 C12.3323306,-0.00924389913 12.5326922,-0.0303345989 12.708448,0.0434828502 Z M12.374512,9 C12.374512,10.8630118 10.8630118,12.374512 9,12.374512 C7.13698819,12.374512 5.62548804,10.8630118 5.62548804,9 C5.62548804,7.13698819 7.13698819,5.62548804 9,5.62548804 C10.8630118,5.62548804 12.374512,7.13698819 12.374512,9 Z M13.4993493,9 C13.4993493,6.51481255 11.4851875,4.50065073 9,4.50065073 C6.51481255,4.50065073 4.50065073,6.51481255 4.50065073,9 C4.50065073,11.4851875 6.51481255,13.4993493 9,13.4993493 C11.4851875,13.4993493 13.4993493,11.4851875 13.4993493,9 Z" id="Shape"></path>
                </g>
            </g>
        </g>
    </g>
</svg>