<?xml version="1.0" encoding="UTF-8"?>
<svg width="18px" height="18px" viewBox="0 0 18 18" version="1.1" xmlns="http://www.w3.org/2000/svg" xmlns:xlink="http://www.w3.org/1999/xlink">
    <title>tag-solid</title>
    <g id="Page-1" stroke="none" stroke-width="1" fill="none" fill-rule="evenodd">
        <g id="Light-theme---Diseño-3" transform="translate(-786.000000, -779.000000)" fill="#000000" fill-rule="nonzero">
            <g id="tag-solid" transform="translate(786.000000, 779.000000)">
                <path d="M0,1.97099348 L0,8.12254392 C0,8.82205133 0.27568865,9.49275549 0.769459367,9.98652543 L8.01142988,17.2284845 C9.04011887,18.2571718 10.706595,18.2571718 11.735284,17.2284845 L17.2284833,11.7352939 C18.2571722,10.7066066 18.2571722,9.04013305 17.2284833,8.01144569 L9.98651274,0.769486641 C9.49274203,0.275716706 8.8220368,1.41968444e-05 8.12252829,1.41968444e-05 L1.97508287,1.41968444e-05 C0.884672534,-0.00408625681 0,0.880584877 0,1.97099348 Z M4.60852669,5.92115296 C3.88021488,5.92115296 3.29180478,5.33274379 3.29180478,4.60443314 C3.29180478,3.87612248 3.88021488,3.28771331 4.60852669,3.28771331 C5.3368385,3.28771331 5.9252486,3.87612248 5.9252486,4.60443314 C5.9252486,5.33274379 5.3368385,5.92115296 4.60852669,5.92115296 Z" id="Shape"></path>
            </g>
        </g>
    </g>
</svg>