<?xml version="1.0" encoding="UTF-8"?>
<svg width="22px" height="18px" viewBox="0 0 22 18" version="1.1" xmlns="http://www.w3.org/2000/svg" xmlns:xlink="http://www.w3.org/1999/xlink">
    <!-- Generator: Sketch 51.3 (57544) - http://www.bohemiancoding.com/sketch -->
    <title>iconfinder_bid_1312826</title>
    <desc>Created with Sketch.</desc>
    <defs></defs>
    <g id="Symbols" stroke="none" stroke-width="1" fill="none" fill-rule="evenodd">
        <g id="List-Hover" transform="translate(-219.000000, -323.000000)" fill="#000000" fill-rule="nonzero">
            <g id="iconfinder_bid_1312826" transform="translate(219.000000, 323.000000)">
                <path d="M16.7147052,2.24825035 L16.0325424,1.20628184 C15.9074168,1.01539952 15.7149479,0.891326011 15.5075139,0.848170007 C15.3004955,0.804599042 15.0726922,0.839870776 14.8823018,0.964774209 L12.4857942,2.52751948 L12.4841314,2.52917933 L12.4458871,2.55407703 C12.255081,2.67898046 12.1307868,2.87152263 12.0879698,3.07734357 C12.0463998,3.27445031 12.0771616,3.48815552 12.1852435,3.67156854 L12.2047813,3.70144577 L12.8877756,4.74465916 L16.7151209,2.24825035 L16.7147052,2.24825035 Z M16.0712024,9.60676388 L19.8997948,7.111185 L17.1703119,2.94082121 L13.3421352,5.43723002 L16.0712024,9.60676388 Z M16.5238992,10.2989198 L17.2068934,11.3417182 C17.332019,11.5330155 17.5244879,11.657089 17.7319219,11.69983 C17.9406031,11.743401 18.1667436,11.7081293 18.3579654,11.5840558 L18.357134,11.5832258 L20.793133,9.99433799 L20.7947958,9.99433799 C20.9851862,9.87026448 21.1082333,9.67772231 21.1518817,9.47024153 C21.1951145,9.26276074 21.1601957,9.03619172 21.0359016,8.8453094 L21.0350702,8.84572436 L20.3520759,7.80292594 L16.5238992,10.2989198 Z M21.7309511,8.3917564 L21.7309511,8.39300129 C21.9803708,8.77435097 22.0514554,9.22375435 21.9645742,9.63830096 C21.8768616,10.0532625 21.6307675,10.4375169 21.2479083,10.6873238 L21.248324,10.6881537 L18.8127406,12.2770416 L18.8110778,12.2770416 C18.4286343,12.5268485 17.9788474,12.5973919 17.5635636,12.51025 C17.1470327,12.423523 16.762095,12.1770359 16.5118439,11.7956862 L14.7143592,9.04822561 L3.88621863,17.5478835 L3.87748894,17.5557677 L3.85545687,17.5690465 C2.87274325,18.2101621 1.88337843,18.0761295 1.14883741,17.5586725 C0.869487348,17.3623956 0.627550239,17.1092691 0.441732561,16.8241905 C0.255499185,16.5386969 0.119981147,16.2162718 0.0518064292,15.8822277 C-0.128607154,15.0020942 0.146170216,14.043118 1.12929954,13.4020024 L1.13304083,13.4007575 L1.1617241,13.3841591 L13.3097106,6.9016294 L11.5113946,4.15333892 L11.5118103,4.152509 L11.5113946,4.15084915 C11.2623906,3.76991443 11.1908903,3.32092601 11.2777715,2.9063794 C11.3621585,2.50552652 11.5945345,2.13413592 11.9532832,1.88474401 L11.9557773,1.8826692 L11.993606,1.85777151 L14.4296051,0.268883654 C14.8116329,0.0190767886 15.2626669,-0.0514666784 15.6783664,0.0356752515 C16.0948973,0.122817181 16.4802507,0.369719316 16.7292547,0.750239077 L21.7301197,8.39258633 L21.7309511,8.3917564 Z M13.7640702,7.59751996 L1.5803335,14.0991379 C0.931010875,14.5240585 0.747271695,15.1481607 0.862836156,15.717073 C0.9098102,15.9457168 1.00500539,16.1697961 1.13553503,16.3702225 C1.26648037,16.570234 1.43483867,16.7470076 1.62522904,16.8814552 C2.09787937,17.2138394 2.73888801,17.2980766 3.38363793,16.8885095 L14.2579212,8.35150513 L13.7640702,7.59669004 L13.7640702,7.59751996 Z" id="Shape"></path>
            </g>
        </g>
    </g>
</svg>