<?xml version="1.0" encoding="UTF-8"?>
<svg width="18px" height="21px" viewBox="0 0 18 21" version="1.1" xmlns="http://www.w3.org/2000/svg" xmlns:xlink="http://www.w3.org/1999/xlink">
    <!-- Generator: Sketch 51.3 (57544) - http://www.bohemiancoding.com/sketch -->
    <title>iconfinder_multimedia-32_2849804</title>
    <desc>Created with Sketch.</desc>
    <defs></defs>
    <g id="Page-1" stroke="none" stroke-width="1" fill="none" fill-rule="evenodd">
        <g id="Home" transform="translate(-188.000000, -243.000000)" fill="#000000" fill-rule="nonzero">
            <g id="Group" transform="translate(48.000000, 237.000000)">
                <g id="iconfinder_multimedia-32_2849804" transform="translate(140.000000, 6.000000)">
                    <path d="M13.185794,21 L0.814205955,21 C0.364532423,21 0,20.6444159 0,20.2057807 L0,4.79421933 C0,4.35558411 0.364532423,4 0.814205955,4 L13.185794,4 C13.6354676,4 14,4.35558411 14,4.79421933 L14,20.2057807 C14,20.6444159 13.6354676,21 13.185794,21 Z M1.62841191,19.4115613 L12.3715881,19.4115613 L12.3715881,5.58843866 L1.62841191,5.58843866 L1.62841191,19.4115613 Z" id="Shape"></path>
                    <path d="M17.185794,17 L12.7928815,17 C12.343208,17 11.9786756,16.6444159 11.9786756,16.2057807 C11.9786756,15.7671454 12.343208,15.4115613 12.7928815,15.4115613 L16.3715881,15.4115613 L16.3715881,1.58843866 L5.62841191,1.58843866 L5.62841191,5.07876787 C5.62841191,5.51740309 5.26387949,5.8729872 4.81420596,5.8729872 C4.36453242,5.8729872 4,5.51740309 4,5.07876787 L4,0.794219329 C4,0.355584106 4.36453242,0 4.81420596,0 L17.185794,0 C17.6354676,0 18,0.355584106 18,0.794219329 L18,16.2057807 C18,16.6444159 17.6354676,17 17.185794,17 Z" id="Shape"></path>
                </g>
            </g>
        </g>
    </g>
</svg>