<?xml version="1.0" encoding="utf-8"?>
<!-- Generator: Adobe Illustrator 16.0.0, SVG Export Plug-In . SVG Version: 6.00 Build 0)  -->
<!DOCTYPE svg PUBLIC "-//W3C//DTD SVG 1.1//EN" "http://www.w3.org/Graphics/SVG/1.1/DTD/svg11.dtd">
<svg version="1.1" id="Capa_1" xmlns="http://www.w3.org/2000/svg" xmlns:xlink="http://www.w3.org/1999/xlink" x="0px" y="0px"
	 width="250px" height="250px" viewBox="0 0 250 250" enable-background="new 0 0 250 250" xml:space="preserve">
<g>
	<path fill="#FFFFFF" d="M236.963,108.887v-9.655c0-17.656-12.115-32.499-28.458-36.751l-0.03-15.92
		c0-15.537-12.643-28.18-28.186-28.18h-1.491L46.885,59.302c-3.004,0.174-5.855,0.868-8.532,1.914h-0.344
		C17.054,61.216,0,78.269,0,99.231v94.372c0,20.959,17.05,38.016,38.009,38.016h160.945c20.956,0,38.009-17.053,38.009-38.016
		v-12.551c7.611-2.946,13.037-10.324,13.037-18.968v-34.237C249.996,119.21,244.574,111.832,236.963,108.887z M230.338,162.082
		c0,0.387-0.305,0.691-0.691,0.691h-53.211c-0.387,0-0.688-0.305-0.688-0.691v-34.234c0-0.377,0.308-0.686,0.688-0.686h53.211
		c0.381,0,0.691,0.309,0.691,0.686V162.082z M181.504,38.127c4.132,0.59,7.312,4.148,7.312,8.45l0.027,14.642h-81.775
		L181.504,38.127z M198.954,211.958H38.012c-10.134,0-18.351-8.22-18.351-18.357V99.231c0-10.141,8.217-18.357,18.351-18.357
		h160.942c10.138,0,18.351,8.217,18.351,18.357v8.273h-40.869c-11.219,0-20.346,9.125-20.346,20.343v34.234
		c0,11.222,9.127,20.35,20.346,20.35h40.869v11.172C217.305,203.738,209.092,211.958,198.954,211.958z"/>
</g>
</svg>
